<?xml version="1.0"?>
<svg xmlns="http://www.w3.org/2000/svg" xmlns:xlink="http://www.w3.org/1999/xlink" version="1.1" viewBox="0 0 192 192" width="480px" height="480px"><g fill="none" fill-rule="nonzero" stroke="none" stroke-width="1" stroke-linecap="butt" stroke-linejoin="miter" stroke-miterlimit="10" stroke-dasharray="" stroke-dashoffset="0" font-family="none" font-weight="none" font-size="none" text-anchor="none" style="mix-blend-mode: normal"><path d="M0,192v-192h192v192z" fill="none"/><g id="Layer_1"><circle cx="24" cy="24" transform="scale(4,4)" r="19.95" fill="#efdc05"/><path d="M32.004,96c0,25.344 14.72,47.224 36.072,57.6l-30.536,-83.648c-3.548,7.964 -5.536,16.752 -5.536,26.048zM139.216,92.776c0,-7.908 -4.252,-13.4 -6.68,-17.648c-3.252,-5.316 -6.304,-9.748 -6.304,-15.008c0,-5.86 5.884,-11.36 12.164,-11.36c0.284,0 0.54,0.024 0.824,0.032c-11.376,-10.456 -26.548,-16.792 -43.216,-16.792c-21.556,0 -40.612,10.664 -52.208,26.996c0.912,0.296 1.228,0.156 2.444,0.156c6.676,0 17.056,-0.8 17.056,-0.8c3.44,-0.228 3.86,4.848 0.396,5.264c0,0 -3.456,0.42 -7.312,0.608l23.724,71.112l14,-42.004l-10.412,-28.992c-3.444,-0.184 -6.716,-0.608 -6.716,-0.608c-3.448,-0.224 -3.048,-5.5 0.392,-5.264c0,0 10.592,0.8 16.868,0.8c6.7,0 17.056,-0.8 17.056,-0.8c3.444,-0.228 3.86,4.848 0.416,5.264c0,0 -3.48,0.42 -7.328,0.608l23.564,70.44l6.396,-21.304c3.256,-8.32 4.876,-15.2 4.876,-20.7zM97.124,101.584l-19.2,55.808c5.744,1.704 11.8,2.608 18.08,2.608c7.444,0 14.596,-1.296 21.264,-3.628c-0.16,-0.284 -0.34,-0.572 -0.472,-0.88zM152.172,65.272c0.284,2.04 0.432,4.236 0.432,6.58c0,6.512 -1.224,13.804 -4.876,22.948l-19.54,56.54c19.032,-11.088 31.812,-31.732 31.812,-55.34c0,-11.124 -2.844,-21.584 -7.828,-30.728z" fill="#090707"/><path d="M16,96c0,44.096 35.88,80 79.996,80c44.124,0 80.004,-35.904 80.004,-80c0,-44.096 -35.88,-80 -80,-80c-44.12,0 -80,35.904 -80,80zM23.98,96c0,-39.696 32.296,-71.996 72.016,-71.996c39.72,0 72.024,32.3 72.024,71.996c0,39.696 -32.304,72.004 -72.02,72.004c-39.712,0 -72.02,-32.308 -72.02,-72.004z" fill="#090707"/></g></g></svg>
